<svg id="Layer_1" data-name="Layer 1" xmlns="http://www.w3.org/2000/svg" viewBox="0 0 267.56 37.55"><defs><style>.cls-1{fill:#fff;}</style></defs><title>Localfinland</title><path class="cls-1" d="M6.78,31.45H19.6v5.31H-.15V7H6.78Z"/><path class="cls-1" d="M21.23,25.51a11.69,11.69,0,0,1,2.82-8.12,10,10,0,0,1,7.87-3.14,10.06,10.06,0,0,1,7.89,3.14,11.69,11.69,0,0,1,2.82,8.12v.43a11.68,11.68,0,0,1-2.82,8.14A10,10,0,0,1,32,37.2a10.11,10.11,0,0,1-7.91-3.13,11.68,11.68,0,0,1-2.82-8.14Zm6.91.43A9.13,9.13,0,0,0,29,30.3a3.09,3.09,0,0,0,3,1.58,3.05,3.05,0,0,0,2.9-1.59,9.06,9.06,0,0,0,.88-4.35v-.43a9.1,9.1,0,0,0-.88-4.32,3.08,3.08,0,0,0-2.94-1.62A3,3,0,0,0,29,21.19a9.19,9.19,0,0,0-.87,4.31Z"/><path class="cls-1" d="M55.12,31.88a2.63,2.63,0,0,0,2.06-.76,3.25,3.25,0,0,0,.67-2.23h6.32l0,.12a7.26,7.26,0,0,1-2.5,5.9,9.6,9.6,0,0,1-6.59,2.28q-5,0-7.76-3.13A11.9,11.9,0,0,1,44.64,26v-.47a11.93,11.93,0,0,1,2.72-8.1,9.65,9.65,0,0,1,7.71-3.14,9.45,9.45,0,0,1,6.72,2.35A8.09,8.09,0,0,1,64.22,23l0,.12H57.86a4.37,4.37,0,0,0-.69-2.56,2.4,2.4,0,0,0-2.11-1,2.8,2.8,0,0,0-2.75,1.61,9.93,9.93,0,0,0-.79,4.31V26a9.89,9.89,0,0,0,.79,4.35A2.87,2.87,0,0,0,55.12,31.88Z"/><path class="cls-1" d="M79.77,36.75a8.72,8.72,0,0,1-.52-1.19,12.35,12.35,0,0,1-.4-1.35,7.59,7.59,0,0,1-2.37,2.18,6.62,6.62,0,0,1-3.37.81A7.25,7.25,0,0,1,68,35.38a6.27,6.27,0,0,1-2-4.84,5.9,5.9,0,0,1,2.46-5.08q2.46-1.79,7.49-1.79h2.51V22.09a3.18,3.18,0,0,0-.66-2.17,2.59,2.59,0,0,0-2.05-.76,2.46,2.46,0,0,0-1.77.56,2.33,2.33,0,0,0-.58,1.75l-6.68,0,0-.12a5.77,5.77,0,0,1,2.51-5.06,11.27,11.27,0,0,1,7-2,10.27,10.27,0,0,1,6.63,2,7.07,7.07,0,0,1,2.54,5.85v8.34a16.27,16.27,0,0,0,1.19,6.3Zm-4.56-4.48a4.32,4.32,0,0,0,1.88-.41,3.94,3.94,0,0,0,1.39-1.06V27.34H76a3.13,3.13,0,0,0-2.38.8,2.84,2.84,0,0,0-.75,2,2,2,0,0,0,.64,1.52A2.39,2.39,0,0,0,75.21,32.27Z"/><path class="cls-1" d="M96.49,36.77H89.56V4.88h6.93Z"/><path class="cls-1" d="M102.3,36.77V19.44H99.09V14.65h3.21V13.59A8.49,8.49,0,0,1,105,6.81q2.72-2.36,7.73-2.36a19.16,19.16,0,0,1,3.41.31q1.7.31,3.78.88L119,11.08q-1.76-.45-2.93-.67a15.85,15.85,0,0,0-2.91-.22,4.32,4.32,0,0,0-2.92.89,3.17,3.17,0,0,0-1,2.52v1.06h4.33v4.78h-4.33V36.77Zm20.81,0h-6.93V14.65h6.93Z"/><path class="cls-1" d="M133.69,14.65l.27,3.11a8,8,0,0,1,2.68-2.59,6.93,6.93,0,0,1,3.56-.93,6.38,6.38,0,0,1,5.08,2.11q1.83,2.11,1.83,6.7V36.77h-6.91V23a3.73,3.73,0,0,0-.79-2.69,3.14,3.14,0,0,0-2.32-.79,4,4,0,0,0-1.71.35,3.78,3.78,0,0,0-1.28,1v15.9h-6.89V14.65Z"/><path class="cls-1" d="M158.1,36.77h-6.93V4.88h6.93Z"/><path class="cls-1" d="M175,36.75a8.72,8.72,0,0,1-.52-1.19,12.35,12.35,0,0,1-.4-1.35,7.59,7.59,0,0,1-2.37,2.18,6.62,6.62,0,0,1-3.37.81,7.25,7.25,0,0,1-5.12-1.82,6.27,6.27,0,0,1-2-4.84,5.9,5.9,0,0,1,2.46-5.08q2.46-1.79,7.49-1.79h2.51V22.09a3.18,3.18,0,0,0-.66-2.17,2.59,2.59,0,0,0-2.05-.76,2.46,2.46,0,0,0-1.77.56,2.33,2.33,0,0,0-.58,1.75l-6.68,0,0-.12a5.77,5.77,0,0,1,2.51-5.06,11.27,11.27,0,0,1,7-2,10.27,10.27,0,0,1,6.63,2,7.07,7.07,0,0,1,2.54,5.85v8.34a16.27,16.27,0,0,0,1.19,6.3Zm-4.56-4.48a4.32,4.32,0,0,0,1.88-.41,3.94,3.94,0,0,0,1.39-1.06V27.34H171.3a3.13,3.13,0,0,0-2.38.8,2.84,2.84,0,0,0-.75,2,2,2,0,0,0,.64,1.52A2.39,2.39,0,0,0,170.48,32.27Z"/><path class="cls-1" d="M190.88,14.65l.27,3.11a8,8,0,0,1,2.68-2.59,6.93,6.93,0,0,1,3.56-.93,6.38,6.38,0,0,1,5.08,2.11q1.83,2.11,1.83,6.7V36.77h-6.91V23a3.73,3.73,0,0,0-.79-2.69,3.14,3.14,0,0,0-2.32-.79,4,4,0,0,0-1.71.35,3.78,3.78,0,0,0-1.28,1v15.9H184.4V14.65Z"/><path class="cls-1" d="M207.13,25.75a14.06,14.06,0,0,1,2.26-8.34,7.36,7.36,0,0,1,6.37-3.17,5.49,5.49,0,0,1,2.77.71,7.33,7.33,0,0,1,2.22,2V4.88h6.91V36.77h-6L221.17,34a7.49,7.49,0,0,1-2.38,2.34,5.92,5.92,0,0,1-3.08.81,7.43,7.43,0,0,1-6.34-3,13.08,13.08,0,0,1-2.25-8Zm6.91.43a9.17,9.17,0,0,0,.79,4.2,2.75,2.75,0,0,0,2.65,1.5,4.36,4.36,0,0,0,1.91-.4,3.43,3.43,0,0,0,1.36-1.18V21.38A3.76,3.76,0,0,0,219.4,20a3.7,3.7,0,0,0-1.88-.47,2.76,2.76,0,0,0-2.66,1.7,10.44,10.44,0,0,0-.82,4.5Z"/><path class="cls-1" d="M239.28,36.77H232.4V31h6.89Z"/><path class="cls-1" d="M245.8,36.77V19.44H242.6V14.65h3.21V13.59a8.49,8.49,0,0,1,2.72-6.78q2.72-2.36,7.73-2.36a19.16,19.16,0,0,1,3.41.31q1.7.31,3.78.88l-.94,5.44q-1.76-.45-2.93-.67a15.85,15.85,0,0,0-2.91-.22,4.32,4.32,0,0,0-2.92.89,3.17,3.17,0,0,0-1,2.52v1.06H257v4.78h-4.33V36.77Zm20.81,0h-6.93V14.65h6.93Z"/></svg>