<svg id="Layer_1" data-name="Layer 1" xmlns="http://www.w3.org/2000/svg" viewBox="0 0 393.53 37.55"><defs><style>.cls-1{fill:#fff;}</style></defs><title>Kommunforbundet</title><path class="cls-1" d="M10.53,22.19H7.37V34H.49V4.49H7.37V16.06H9.7L16.2,4.49h8.53L15.57,17.87,25.52,34H17.15Z"/><path class="cls-1" d="M25.56,22.86a11.61,11.61,0,0,1,2.8-8.07,10,10,0,0,1,7.82-3.12A10,10,0,0,1,44,14.79a11.61,11.61,0,0,1,2.8,8.07v.43A11.6,11.6,0,0,1,44,31.37a10,10,0,0,1-7.8,3.11,10,10,0,0,1-7.86-3.11,11.6,11.6,0,0,1-2.8-8.08Zm6.86.43a9.07,9.07,0,0,0,.86,4.33,3.07,3.07,0,0,0,2.93,1.57,3,3,0,0,0,2.88-1.58A9,9,0,0,0,40,23.29v-.43a9,9,0,0,0-.87-4.29A3.06,3.06,0,0,0,36.18,17a3,3,0,0,0-2.89,1.62,9.14,9.14,0,0,0-.86,4.28Z"/><path class="cls-1" d="M56.3,12.08l.24,2.9a7.27,7.27,0,0,1,2.61-2.45,7.37,7.37,0,0,1,3.6-.86,6.72,6.72,0,0,1,3.53.89,5.49,5.49,0,0,1,2.23,2.72,7.38,7.38,0,0,1,2.61-2.67,7.17,7.17,0,0,1,3.73-.94,6.22,6.22,0,0,1,5,2.2q1.84,2.2,1.84,6.79V34H74.85V20.67a4.73,4.73,0,0,0-.66-2.92,2.43,2.43,0,0,0-2-.79,4.12,4.12,0,0,0-1.76.36,3.72,3.72,0,0,0-1.29,1c0,.23,0,.43,0,.6s0,.33,0,.5V34H62.35V20.67a4.79,4.79,0,0,0-.65-2.92,2.45,2.45,0,0,0-2-.79,4,4,0,0,0-1.7.36,3.72,3.72,0,0,0-1.29,1V34H49.84v-22Z"/><path class="cls-1" d="M92.11,12.08l.24,2.9A7.27,7.27,0,0,1,95,12.54a7.37,7.37,0,0,1,3.6-.86,6.72,6.72,0,0,1,3.53.89,5.49,5.49,0,0,1,2.23,2.72,7.38,7.38,0,0,1,2.61-2.67,7.17,7.17,0,0,1,3.73-.94,6.22,6.22,0,0,1,5,2.2q1.84,2.2,1.84,6.79V34h-6.88V20.67a4.73,4.73,0,0,0-.66-2.92,2.43,2.43,0,0,0-2-.79,4.12,4.12,0,0,0-1.76.36,3.72,3.72,0,0,0-1.29,1c0,.23,0,.43,0,.6s0,.33,0,.5V34H98.16V20.67a4.79,4.79,0,0,0-.65-2.92,2.45,2.45,0,0,0-2-.79,4,4,0,0,0-1.7.36,3.72,3.72,0,0,0-1.29,1V34H85.65v-22Z"/><path class="cls-1" d="M134.64,31.45a7.17,7.17,0,0,1-2.59,2.24,7.5,7.5,0,0,1-3.46.78,6.77,6.77,0,0,1-5.35-2.19q-1.94-2.19-1.94-6.8V12.08h6.84V25.52a4.51,4.51,0,0,0,.7,2.76,2.37,2.37,0,0,0,2,.91,5.6,5.6,0,0,0,1.93-.3,3.73,3.73,0,0,0,1.42-.91V12.08h6.86V34h-6Z"/><path class="cls-1" d="M151.15,12.08l.26,3.09a8,8,0,0,1,2.66-2.57,6.88,6.88,0,0,1,3.53-.92,6.33,6.33,0,0,1,5,2.09q1.82,2.09,1.82,6.66V34H157.6V20.4a3.7,3.7,0,0,0-.78-2.67,3.13,3.13,0,0,0-2.3-.78,4,4,0,0,0-1.7.35,3.77,3.77,0,0,0-1.27,1V34h-6.84v-22Z"/><path class="cls-1" d="M169.66,34V16.83h-3.17V12.08h3.17V9.81A7.41,7.41,0,0,1,171.93,4a9.34,9.34,0,0,1,6.44-2,11.69,11.69,0,0,1,1.58.11q.81.11,1.81.31l-.51,5.06q-.55-.1-1-.15a9.57,9.57,0,0,0-1.07-.05,2.71,2.71,0,0,0-2,.67,2.54,2.54,0,0,0-.69,1.91v2.27h4.26v4.75h-4.26V34Z"/><path class="cls-1" d="M182.37,22.86a11.61,11.61,0,0,1,2.8-8.07,11.39,11.39,0,0,1,15.65,0,11.61,11.61,0,0,1,2.8,8.07v.43a11.6,11.6,0,0,1-2.8,8.08,11.41,11.41,0,0,1-15.65,0,11.6,11.6,0,0,1-2.8-8.08Zm8.36-14.78h-5.89V3.94h5.89Zm-1.5,15.21a9.07,9.07,0,0,0,.86,4.33A3.07,3.07,0,0,0,193,29.2a3,3,0,0,0,2.88-1.58,9,9,0,0,0,.87-4.32v-.43a9,9,0,0,0-.87-4.29A3.06,3.06,0,0,0,193,17a3,3,0,0,0-2.89,1.62,9.14,9.14,0,0,0-.86,4.28Zm12-15.21H195.3V3.94h5.89Z"/><path class="cls-1" d="M219.05,18.13l-2.5,0a4.12,4.12,0,0,0-1.93.4,2.53,2.53,0,0,0-1.12,1.13V34h-6.86v-22h6.46l.24,3.23a6.62,6.62,0,0,1,1.83-2.68,4,4,0,0,1,2.66-1,7.2,7.2,0,0,1,1,.07,7.94,7.94,0,0,1,.89.17Z"/><path class="cls-1" d="M242.36,23.53a13.31,13.31,0,0,1-2.15,8,7.38,7.38,0,0,1-6.37,3,6.12,6.12,0,0,1-3.15-.78,6.7,6.7,0,0,1-2.27-2.24L228,34H222V2.38h6.86V14.21A6.63,6.63,0,0,1,231,12.33a5.73,5.73,0,0,1,2.79-.66,7.3,7.3,0,0,1,6.41,3.11,14.32,14.32,0,0,1,2.16,8.32Zm-6.84-.43a11.29,11.29,0,0,0-.73-4.54A2.71,2.71,0,0,0,232.07,17a4.13,4.13,0,0,0-1.92.42,3.12,3.12,0,0,0-1.27,1.21V27.8a3,3,0,0,0,1.28,1.06,4.89,4.89,0,0,0,1.95.35,2.73,2.73,0,0,0,2.72-1.41,10.08,10.08,0,0,0,.69-4.25Z"/><path class="cls-1" d="M258.56,31.45A7.17,7.17,0,0,1,256,33.69a7.5,7.5,0,0,1-3.46.78,6.77,6.77,0,0,1-5.35-2.19q-1.94-2.19-1.94-6.8V12.08h6.84V25.52a4.51,4.51,0,0,0,.7,2.76,2.37,2.37,0,0,0,2,.91,5.6,5.6,0,0,0,1.93-.3,3.73,3.73,0,0,0,1.42-.91V12.08H265V34h-6Z"/><path class="cls-1" d="M275.07,12.08l.26,3.09A8,8,0,0,1,278,12.6a6.88,6.88,0,0,1,3.53-.92,6.33,6.33,0,0,1,5,2.09q1.82,2.09,1.82,6.66V34h-6.86V20.4a3.7,3.7,0,0,0-.78-2.67,3.13,3.13,0,0,0-2.3-.78,4,4,0,0,0-1.7.35,3.77,3.77,0,0,0-1.27,1V34h-6.84v-22Z"/><path class="cls-1" d="M291.21,23.11a14,14,0,0,1,2.24-8.28,7.31,7.31,0,0,1,6.32-3.15,5.46,5.46,0,0,1,2.75.7,7.28,7.28,0,0,1,2.2,2v-12h6.86V34h-5.95l-.49-2.7a7.41,7.41,0,0,1-2.37,2.32,5.87,5.87,0,0,1-3.06.8,7.39,7.39,0,0,1-6.29-3,13,13,0,0,1-2.23-7.94Zm6.86.43a9.12,9.12,0,0,0,.78,4.17,2.73,2.73,0,0,0,2.63,1.49,4.32,4.32,0,0,0,1.9-.4,3.41,3.41,0,0,0,1.35-1.17V18.76a3.75,3.75,0,0,0-1.34-1.34,3.68,3.68,0,0,0-1.87-.47,2.74,2.74,0,0,0-2.64,1.69,10.38,10.38,0,0,0-.81,4.47Z"/><path class="cls-1" d="M325.52,34.47a10.18,10.18,0,0,1-7.75-3,10.65,10.65,0,0,1-2.89-7.63V23a12.42,12.42,0,0,1,2.63-8.19A10.52,10.52,0,0,1,332,14.36a10.14,10.14,0,0,1,2.54,7.27v3.59H322l0,.12a4.48,4.48,0,0,0,1.38,2.77,4.32,4.32,0,0,0,3.09,1.09,12.8,12.8,0,0,0,3.12-.3,22.92,22.92,0,0,0,3-1.06L334.15,32a12.5,12.5,0,0,1-3.73,1.75A16.64,16.64,0,0,1,325.52,34.47ZM325,17A2.54,2.54,0,0,0,322.81,18a5.78,5.78,0,0,0-.9,2.82l.06.1h5.91V20.4a4.12,4.12,0,0,0-.69-2.56A2.55,2.55,0,0,0,325,17Z"/><path class="cls-1" d="M345.6,6.62v5.46h3.72v4.75H345.6V26.9a2.46,2.46,0,0,0,.48,1.69,1.67,1.67,0,0,0,1.29.52c.43,0,.77,0,1,0s.57-.08,1-.16l.49,5.08a20.16,20.16,0,0,1-2.05.37,17.79,17.79,0,0,1-2.15.11,6.83,6.83,0,0,1-5.14-1.81q-1.75-1.81-1.75-5.73V16.83h-3.09V12.08h3.09V6.62Z"/><path class="cls-1" d="M360.19,34h-6.84V28.28h6.84Z"/><path class="cls-1" d="M366.67,34V16.83h-3.19V12.08h3.19V11a8.43,8.43,0,0,1,2.7-6.73Q372.07,2,377,2a19,19,0,0,1,3.39.3q1.69.3,3.76.87l-.93,5.4q-1.75-.45-2.91-.67a15.77,15.77,0,0,0-2.89-.22,4.29,4.29,0,0,0-2.9.88,3.14,3.14,0,0,0-1,2.51v1.06h4.3v4.75h-4.3V34Zm20.67,0h-6.88v-22h6.88Z"/></svg>