<svg id="Layer_1" data-name="Layer 1" xmlns="http://www.w3.org/2000/svg" viewBox="0 0 267.56 37.55"><defs><style>.cls-1{fill:#fff;}</style></defs><title>Kuntaliitto</title><path class="cls-1" d="M20.62,26.56H17V40.25H9V6.13H17V19.49h2.7l7.5-13.36H37L26.44,21.57,37.92,40.25H28.26Z" transform="translate(-9.02 -3.2)"/><path class="cls-1" d="M54.33,37.25a8.31,8.31,0,0,1-3,2.59,8.67,8.67,0,0,1-4,.9,7.82,7.82,0,0,1-6.18-2.53q-2.24-2.53-2.24-7.85V14.89h7.9V30.41a5.21,5.21,0,0,0,.81,3.19,2.74,2.74,0,0,0,2.31,1.05,6.47,6.47,0,0,0,2.23-.35,4.3,4.3,0,0,0,1.64-1.05V14.89h7.92V40.25H54.82Z" transform="translate(-9.02 -3.2)"/><path class="cls-1" d="M73.38,14.89l.3,3.56a9.18,9.18,0,0,1,3.07-3,7.94,7.94,0,0,1,4.08-1.07,7.31,7.31,0,0,1,5.82,2.41q2.1,2.41,2.1,7.69V40.25H80.83V24.5a4.27,4.27,0,0,0-.9-3.08,3.61,3.61,0,0,0-2.66-.9,4.59,4.59,0,0,0-2,.4A4.34,4.34,0,0,0,73.85,22V40.25H66V14.89Z" transform="translate(-9.02 -3.2)"/><path class="cls-1" d="M102.44,8.59v6.3h4.29v5.48h-4.29V32a2.84,2.84,0,0,0,.55,2,1.92,1.92,0,0,0,1.49.6,11.62,11.62,0,0,0,1.18,0q.43,0,1.11-.19l.56,5.86a22.84,22.84,0,0,1-2.37.43,20.79,20.79,0,0,1-2.48.13,7.88,7.88,0,0,1-5.93-2.09q-2-2.09-2-6.61V20.38H91V14.89h3.56V8.59Z" transform="translate(-9.02 -3.2)"/><path class="cls-1" d="M125,40.23a10,10,0,0,1-.6-1.36,14.16,14.16,0,0,1-.46-1.55,8.7,8.7,0,0,1-2.72,2.5,7.58,7.58,0,0,1-3.87.93,8.32,8.32,0,0,1-5.87-2.09,7.19,7.19,0,0,1-2.26-5.55,6.77,6.77,0,0,1,2.82-5.82q2.82-2.05,8.59-2.05h2.88v-1.8a3.65,3.65,0,0,0-.76-2.48,3,3,0,0,0-2.36-.87,2.82,2.82,0,0,0-2,.64,2.67,2.67,0,0,0-.67,2l-7.66,0,0-.14a6.62,6.62,0,0,1,2.88-5.8A12.92,12.92,0,0,1,121,14.42a11.77,11.77,0,0,1,7.61,2.34,8.1,8.1,0,0,1,2.92,6.7V33a18.68,18.68,0,0,0,1.36,7.22Zm-5.23-5.13a5,5,0,0,0,2.16-.47,4.51,4.51,0,0,0,1.59-1.22v-4h-2.81a3.59,3.59,0,0,0-2.73.91,3.26,3.26,0,0,0-.86,2.32,2.24,2.24,0,0,0,.74,1.75A2.74,2.74,0,0,0,119.81,35.09Z" transform="translate(-9.02 -3.2)"/><path class="cls-1" d="M144.21,40.25h-7.95V3.69h7.95Z" transform="translate(-9.02 -3.2)"/><path class="cls-1" d="M157.36,9h-7.95V3.69h7.95Zm0,31.24h-7.95V14.89h7.95Z" transform="translate(-9.02 -3.2)"/><path class="cls-1" d="M170.51,9h-7.95V3.69h7.95Zm0,31.24h-7.95V14.89h7.95Z" transform="translate(-9.02 -3.2)"/><path class="cls-1" d="M184.73,8.59v6.3H189v5.48h-4.29V32a2.84,2.84,0,0,0,.55,2,1.92,1.92,0,0,0,1.49.6,11.62,11.62,0,0,0,1.18,0q.43,0,1.11-.19l.56,5.86a22.84,22.84,0,0,1-2.37.43,20.79,20.79,0,0,1-2.48.13,7.88,7.88,0,0,1-5.93-2.09q-2-2.09-2-6.61V20.38h-3.56V14.89h3.56V8.59Z" transform="translate(-9.02 -3.2)"/><path class="cls-1" d="M202.12,8.59v6.3h4.29v5.48h-4.29V32a2.84,2.84,0,0,0,.55,2,1.92,1.92,0,0,0,1.49.6,11.62,11.62,0,0,0,1.18,0q.43,0,1.11-.19l.56,5.86a22.84,22.84,0,0,1-2.37.43,20.79,20.79,0,0,1-2.48.13,7.88,7.88,0,0,1-5.93-2.09q-2-2.09-2-6.61V20.38h-3.56V14.89h3.56V8.59Z" transform="translate(-9.02 -3.2)"/><path class="cls-1" d="M208.38,27.34A13.4,13.4,0,0,1,211.62,18q3.23-3.6,9-3.6t9,3.6a13.4,13.4,0,0,1,3.23,9.32v.49a13.4,13.4,0,0,1-3.23,9.33q-3.23,3.59-9,3.59t-9.07-3.59a13.4,13.4,0,0,1-3.23-9.33Zm7.92.49a10.48,10.48,0,0,0,1,5,3.54,3.54,0,0,0,3.39,1.82A3.5,3.5,0,0,0,224,32.82a10.39,10.39,0,0,0,1-5v-.49a10.43,10.43,0,0,0-1-5,3.53,3.53,0,0,0-3.37-1.86,3.48,3.48,0,0,0-3.34,1.88,10.55,10.55,0,0,0-1,4.95Z" transform="translate(-9.02 -3.2)"/><path class="cls-1" d="M245.25,40.25h-7.9V33.59h7.9Z" transform="translate(-9.02 -3.2)"/><path class="cls-1" d="M252.73,40.25V20.38H249V14.89h3.68V13.67q0-5.06,3.12-7.77T264.7,3.2a22,22,0,0,1,3.91.35q1.95.35,4.34,1l-1.08,6.23q-2-.52-3.36-.77a18.18,18.18,0,0,0-3.34-.26,5,5,0,0,0-3.35,1,3.63,3.63,0,0,0-1.17,2.89v1.22h5v5.48h-5V40.25Zm23.86,0h-7.95V14.89h7.95Z" transform="translate(-9.02 -3.2)"/></svg>