<svg id="Capa_1" data-name="Capa 1" xmlns="http://www.w3.org/2000/svg" viewBox="0 0 550.8 550.8"><defs><style>.cls-1{fill:#426bba;}</style></defs><title>generic_attachment</title><path class="cls-1" d="M466.1,133.1a10.33,10.33,0,0,0-2.6-7L357.9,5.4a.1.1,0,0,1-.1-.1,11.79,11.79,0,0,0-2.1-1.8c-.2-.1-.5-.3-.7-.4a9.49,9.49,0,0,0-2.1-.9c-.2-.1-.4-.1-.6-.2a10.07,10.07,0,0,0-2.5-.3H90A21.47,21.47,0,0,0,68.5,23.2V526.5A21.47,21.47,0,0,0,90,548H444.8a21.47,21.47,0,0,0,21.5-21.5V134.3C466.2,133.9,466.2,133.5,466.1,133.1ZM90,523.8V23.2H339v110A10.82,10.82,0,0,0,349.8,144h95V523.8Z"/><g id="attachment"><path class="cls-1" d="M245.5,188.5c35.2-35.2,93.9-35.2,129.2,0s35.2,93.9,0,129.2L251.4,441a66.4,66.4,0,0,1-93.9-93.9l99.8-99.8A41.51,41.51,0,1,1,316,306l-88.1,88-17.6-17.6,88.1-88.1c7-7,7-16.4,0-23.5s-16.4-7-23.5,0L175,364.7a41.51,41.51,0,0,0,58.7,58.7L357,300.1a66.4,66.4,0,0,0-93.9-93.9L151.6,317.7,134,300.1Z"/></g></svg>